<svg xmlns="http://www.w3.org/2000/svg" version="1.1" xmlns:xlink="http://www.w3.org/1999/xlink" xmlns:svgjs="http://svgjs.dev/svgjs" width="1000" height="1000" viewBox="0 0 1000 1000"><rect width="1000" height="1000" fill="#ffffff"></rect><g transform="matrix(0.7,0,0,0.7,149.57575757575756,307.37450950089374)"><svg viewBox="0 0 396 218" data-background-color="#ffffff" preserveAspectRatio="xMidYMid meet" height="550" width="1000" xmlns="http://www.w3.org/2000/svg" xmlns:xlink="http://www.w3.org/1999/xlink"><g id="tight-bounds" transform="matrix(1,0,0,1,0.2400000000000091,0.0710569579354825)"><svg viewBox="0 0 395.52 217.85788608412903" height="217.85788608412903" width="395.52"><g><svg viewBox="0 0 395.52 217.85788608412903" height="217.85788608412903" width="395.52"><g><svg viewBox="0 0 395.52 217.85788608412903" height="217.85788608412903" width="395.52"><g id="textblocktransform"><svg viewBox="0 0 395.52 217.85788608412903" height="217.85788608412903" width="395.52" id="textblock"><g><rect width="395.52" height="152.6803953548387" fill="none" stroke-width="9.018103199999999" stroke="#000000" data-fill-palette-color="none" data-stroke-palette-color="tertiary"></rect><rect width="395.52" height="65.17749072929033" y="152.6803953548387" fill="#000000" data-fill-palette-color="tertiary"></rect></g><g><svg viewBox="0 0 395.52 152.6803953548387" height="152.6803953548387" width="395.52"><g transform="matrix(1,0,0,1,23.607599999999998,23.607599999999998)"><svg width="348.3048" viewBox="0.3500000238418579 -34.29999923706055 116.23999786376953 35.20000076293945" height="105.46519535483871" data-palette-color="#dedede"><path d="M28.8-8.2L30.35-3.55 19.65 0.85 18.2 0.9Q11.7 0.9 7.73-1.65 3.75-4.2 2.05-8.08 0.35-11.95 0.35-16.2L0.35-16.2Q0.35-20.9 2.38-25.05 4.4-29.2 8.5-31.75 12.6-34.3 18.5-34.3L18.5-34.3Q24.55-34.3 29.4-31L29.4-31 29.45-30.15Q29.45-26.15 28.1-20.75L28.1-20.75 21.9-20.75 20.1-27.9Q17.6-28.8 14.6-29.1L14.6-29.1Q10.75-24.95 10.75-17.5L10.75-17.5Q10.75-12.25 13.15-8.9 15.55-5.55 20.05-5.5L20.05-5.5 28.8-8.2ZM64.75-3.25L67.7-2.75 67.65 0 55.25 0 48.8-12.45 46.4-12.4 46.4-3.4 50.15-2.75 50.1 0 31.95 0 31.65-1.6Q33.5-3 35.9-4.2L35.9-4.2 35.9-29.9 32.1-30.55 32.15-33.3 50.1-33.7Q56.35-33.7 60.4-30.68 64.45-27.65 64.45-23L64.45-23Q64.45-20.1 62.75-17.7 61.05-15.3 58.15-13.9L58.15-13.9 64.75-3.25ZM46.4-28.1L46.4-17.5Q47.6-17.15 48.75-17.15L48.75-17.15Q53.85-17.15 53.85-22.75L53.85-22.75Q53.85-26.55 51.75-28.85L51.75-28.85 46.4-28.1ZM112.09-3.65L116.59-2.35 116.55 0 98.14 0 97.84-1.6Q99.5-2.9 102.09-4.2L102.09-4.2 102.05-13.2 102.75-22.3 94.5-0.8 87.39 0.35 79.25-22.25 79.94-13.2 79.89-3.6 84.14-2.35 84.09 0 68.69 0 68.39-1.6Q70.05-2.95 72.8-4.3L72.8-4.3 73.3-28.9 69-30.15 69.05-32.5 85.39-32.5 85.34-32.45 93.3-10.15 101.75-32.5 115.9-32.5 116.19-30.9Q114.34-29.45 111.69-28.15L111.69-28.15 112.09-3.65Z" opacity="1" transform="matrix(1,0,0,1,0,0)" fill="#000000" class="wordmark-text-0" data-fill-palette-color="primary" id="text-0"></path></svg></g></svg></g></svg></g></svg></g></svg></g><defs></defs></svg><rect width="395.52" height="217.85788608412903" fill="none" stroke="none" visibility="hidden"></rect></g></svg></g></svg>